<svg width="1670" height="1747" viewBox="0 0 1670 1747" fill="none" xmlns="http://www.w3.org/2000/svg">
<path d="M532.943 426.871H1137.11C1152.48 426.869 1167.66 430.19 1181.62 436.606C1195.58 443.022 1207.99 452.38 1218 464.041C1228 475.702 1235.37 489.388 1239.59 504.162C1243.81 518.935 1244.79 534.447 1242.45 549.633L1175.58 983.991C1169.78 1021.74 1150.65 1056.16 1121.66 1081.02C1092.67 1105.89 1055.74 1119.55 1017.55 1119.54H652.455C614.273 1119.54 577.352 1105.87 548.375 1081.01C519.397 1056.14 500.277 1021.73 494.473 983.991L427.604 549.633C425.268 534.447 426.244 518.935 430.465 504.162C434.686 489.388 442.052 475.702 452.057 464.041C462.063 452.38 474.472 443.022 488.433 436.606C502.394 430.19 517.578 426.869 532.943 426.871Z" stroke="black" stroke-width="31.9694" stroke-linecap="round" stroke-linejoin="round"/>
<path d="M675.153 423.887V320.307C675.153 277.913 691.994 237.255 721.971 207.278C751.948 177.301 792.606 160.46 835 160.46C877.394 160.46 918.052 177.301 948.029 207.278C978.006 237.255 994.847 277.913 994.847 320.307V423.887" stroke="black" stroke-width="31.9694" stroke-linecap="round" stroke-linejoin="round"/>
<path d="M1013.81 843.873L963.773 818.855C949.217 811.64 936.974 800.491 928.433 786.672C919.891 772.852 915.394 756.916 915.45 740.67V689.286C915.45 686.504 914.344 683.836 912.377 681.869C910.41 679.902 907.742 678.797 904.96 678.797C881.784 678.769 859.565 669.55 843.178 653.162C826.79 636.775 817.571 614.556 817.543 591.38C817.542 589.429 816.996 587.517 815.968 585.859C814.939 584.201 813.469 582.863 811.721 581.995C809.974 581.126 808.019 580.763 806.077 580.945C804.134 581.126 802.281 581.846 800.725 583.023L666.103 685.143L665.841 685.335C663.168 687.489 660.977 690.18 659.412 693.236C657.846 696.291 656.941 699.641 656.755 703.069C656.568 706.497 657.105 709.925 658.33 713.132C659.555 716.339 661.441 719.252 663.866 721.683L862.685 920.485C864.651 922.453 867.317 923.56 870.098 923.562H1002.87C1009.36 923.562 1015.58 920.983 1020.17 916.393C1024.76 911.803 1027.34 905.577 1027.34 899.085V865.762C1027.35 861.215 1026.09 856.755 1023.7 852.886C1021.31 849.018 1017.88 845.896 1013.81 843.873ZM1006.36 899.085C1006.36 900.013 1005.99 900.902 1005.34 901.558C1004.68 902.214 1003.79 902.582 1002.87 902.582H874.434L678.709 706.77C678.369 706.432 678.102 706.028 677.924 705.583C677.747 705.138 677.663 704.661 677.677 704.182C677.702 703.711 677.821 703.25 678.029 702.826C678.236 702.403 678.527 702.025 678.884 701.717L703.99 682.678L773.923 752.611C775.894 754.553 778.553 755.637 781.321 755.628C784.088 755.618 786.739 754.515 788.697 752.56C790.655 750.604 791.761 747.954 791.774 745.186C791.787 742.419 790.706 739.759 788.766 737.785L720.879 669.898L798.312 611.136C802.636 634.257 814.349 655.35 831.689 671.243C849.03 687.136 871.06 696.971 894.47 699.269V740.67C894.4 760.813 899.976 780.573 910.567 797.708C921.157 814.844 936.337 828.668 954.385 837.614L1004.42 862.65C1005 862.939 1005.49 863.382 1005.83 863.932C1006.18 864.481 1006.36 865.115 1006.36 865.762V899.085ZM735.022 867.616H667.187C664.405 867.616 661.737 866.51 659.77 864.543C657.803 862.576 656.698 859.908 656.698 857.126C656.698 854.344 657.803 851.675 659.77 849.708C661.737 847.741 664.405 846.636 667.187 846.636H735.022C737.805 846.636 740.473 847.741 742.44 849.708C744.407 851.675 745.512 854.344 745.512 857.126C745.512 859.908 744.407 862.576 742.44 864.543C740.473 866.51 737.805 867.616 735.022 867.616ZM801.459 913.072C801.459 915.854 800.354 918.522 798.386 920.49C796.419 922.457 793.751 923.562 790.969 923.562H695.161C692.379 923.562 689.71 922.457 687.743 920.49C685.776 918.522 684.671 915.854 684.671 913.072C684.671 910.29 685.776 907.622 687.743 905.655C689.71 903.687 692.379 902.582 695.161 902.582H790.969C793.751 902.582 796.419 903.687 798.386 905.655C800.354 907.622 801.459 910.29 801.459 913.072Z" fill="black"/>
<rect x="0.5" y="1279.39" width="1669" height="467" rx="10" fill="black"/>
<path d="M170.75 1604.39C157.417 1604.39 144.667 1602.39 132.5 1598.39C120.333 1594.22 110.75 1588.89 103.75 1582.39L113 1562.89C119.667 1568.72 128.167 1573.55 138.5 1577.39C148.833 1581.22 159.583 1583.14 170.75 1583.14C180.917 1583.14 189.167 1581.97 195.5 1579.64C201.833 1577.3 206.5 1574.14 209.5 1570.14C212.5 1565.97 214 1561.3 214 1556.14C214 1550.14 212 1545.3 208 1541.64C204.167 1537.97 199.083 1535.05 192.75 1532.89C186.583 1530.55 179.75 1528.55 172.25 1526.89C164.75 1525.22 157.167 1523.3 149.5 1521.14C142 1518.8 135.083 1515.89 128.75 1512.39C122.583 1508.89 117.583 1504.22 113.75 1498.39C109.917 1492.39 108 1484.72 108 1475.39C108 1466.39 110.333 1458.14 115 1450.64C119.833 1442.97 127.167 1436.89 137 1432.39C147 1427.72 159.667 1425.39 175 1425.39C185.167 1425.39 195.25 1426.72 205.25 1429.39C215.25 1432.05 223.917 1435.89 231.25 1440.89L223 1460.89C215.5 1455.89 207.583 1452.3 199.25 1450.14C190.917 1447.8 182.833 1446.64 175 1446.64C165.167 1446.64 157.083 1447.89 150.75 1450.39C144.417 1452.89 139.75 1456.22 136.75 1460.39C133.917 1464.55 132.5 1469.22 132.5 1474.39C132.5 1480.55 134.417 1485.47 138.25 1489.14C142.25 1492.8 147.333 1495.72 153.5 1497.89C159.833 1500.05 166.75 1502.05 174.25 1503.89C181.75 1505.55 189.25 1507.47 196.75 1509.64C204.417 1511.8 211.333 1514.64 217.5 1518.14C223.833 1521.64 228.917 1526.3 232.75 1532.14C236.583 1537.97 238.5 1545.47 238.5 1554.64C238.5 1563.47 236.083 1571.72 231.25 1579.39C226.417 1586.89 218.917 1592.97 208.75 1597.64C198.75 1602.14 186.083 1604.39 170.75 1604.39ZM342.273 1468.64C353.107 1468.64 362.607 1470.72 370.773 1474.89C379.107 1479.05 385.607 1485.39 390.273 1493.89C394.94 1502.39 397.273 1513.14 397.273 1526.14V1602.39H373.273V1528.89C373.273 1516.05 370.107 1506.39 363.773 1499.89C357.607 1493.39 348.857 1490.14 337.523 1490.14C329.023 1490.14 321.607 1491.8 315.273 1495.14C308.94 1498.47 304.023 1503.39 300.523 1509.89C297.19 1516.39 295.523 1524.47 295.523 1534.14V1602.39H271.523V1416.89H295.523V1505.64L290.773 1496.14C295.107 1487.47 301.773 1480.72 310.773 1475.89C319.773 1471.05 330.273 1468.64 342.273 1468.64ZM498.439 1603.89C485.106 1603.89 473.273 1600.97 462.939 1595.14C452.606 1589.3 444.439 1581.3 438.439 1571.14C432.439 1560.8 429.439 1549.14 429.439 1536.14C429.439 1522.97 432.439 1511.3 438.439 1501.14C444.439 1490.97 452.606 1483.05 462.939 1477.39C473.273 1471.55 485.106 1468.64 498.439 1468.64C511.606 1468.64 523.356 1471.55 533.689 1477.39C544.189 1483.05 552.356 1490.97 558.189 1501.14C564.189 1511.14 567.189 1522.8 567.189 1536.14C567.189 1549.3 564.189 1560.97 558.189 1571.14C552.356 1581.3 544.189 1589.3 533.689 1595.14C523.356 1600.97 511.606 1603.89 498.439 1603.89ZM498.439 1582.89C506.939 1582.89 514.523 1580.97 521.189 1577.14C528.023 1573.3 533.356 1567.89 537.189 1560.89C541.023 1553.72 542.939 1545.47 542.939 1536.14C542.939 1526.64 541.023 1518.47 537.189 1511.64C533.356 1504.64 528.023 1499.22 521.189 1495.39C514.523 1491.55 506.939 1489.64 498.439 1489.64C489.939 1489.64 482.356 1491.55 475.689 1495.39C469.023 1499.22 463.689 1504.64 459.689 1511.64C455.689 1518.47 453.689 1526.64 453.689 1536.14C453.689 1545.47 455.689 1553.72 459.689 1560.89C463.689 1567.89 469.023 1573.3 475.689 1577.14C482.356 1580.97 489.939 1582.89 498.439 1582.89ZM659.381 1603.89C645.214 1603.89 632.714 1600.97 621.881 1595.14C611.214 1589.3 602.881 1581.3 596.881 1571.14C591.048 1560.97 588.131 1549.3 588.131 1536.14C588.131 1522.97 590.964 1511.3 596.631 1501.14C602.464 1490.97 610.381 1483.05 620.381 1477.39C630.548 1471.55 641.964 1468.64 654.631 1468.64C667.464 1468.64 678.798 1471.47 688.631 1477.14C698.464 1482.8 706.131 1490.8 711.631 1501.14C717.298 1511.3 720.131 1523.22 720.131 1536.89C720.131 1537.89 720.048 1539.05 719.881 1540.39C719.881 1541.72 719.798 1542.97 719.631 1544.14H606.881V1526.89H707.131L697.381 1532.89C697.548 1524.39 695.798 1516.8 692.131 1510.14C688.464 1503.47 683.381 1498.3 676.881 1494.64C670.548 1490.8 663.131 1488.89 654.631 1488.89C646.298 1488.89 638.881 1490.8 632.381 1494.64C625.881 1498.3 620.798 1503.55 617.131 1510.39C613.464 1517.05 611.631 1524.72 611.631 1533.39V1537.39C611.631 1546.22 613.631 1554.14 617.631 1561.14C621.798 1567.97 627.548 1573.3 634.881 1577.14C642.214 1580.97 650.631 1582.89 660.131 1582.89C667.964 1582.89 675.048 1581.55 681.381 1578.89C687.881 1576.22 693.548 1572.22 698.381 1566.89L711.631 1582.39C705.631 1589.39 698.131 1594.72 689.131 1598.39C680.298 1602.05 670.381 1603.89 659.381 1603.89ZM791.457 1603.89C780.457 1603.89 769.957 1602.39 759.957 1599.39C750.124 1596.39 742.374 1592.72 736.707 1588.39L746.707 1569.39C752.374 1573.22 759.374 1576.47 767.707 1579.14C776.04 1581.8 784.54 1583.14 793.207 1583.14C804.374 1583.14 812.374 1581.55 817.207 1578.39C822.207 1575.22 824.707 1570.8 824.707 1565.14C824.707 1560.97 823.207 1557.72 820.207 1555.39C817.207 1553.05 813.207 1551.3 808.207 1550.14C803.374 1548.97 797.957 1547.97 791.957 1547.14C785.957 1546.14 779.957 1544.97 773.957 1543.64C767.957 1542.14 762.457 1540.14 757.457 1537.64C752.457 1534.97 748.457 1531.39 745.457 1526.89C742.457 1522.22 740.957 1516.05 740.957 1508.39C740.957 1500.39 743.207 1493.39 747.707 1487.39C752.207 1481.39 758.54 1476.8 766.707 1473.64C775.04 1470.3 784.874 1468.64 796.207 1468.64C804.874 1468.64 813.624 1469.72 822.457 1471.89C831.457 1473.89 838.79 1476.8 844.457 1480.64L834.207 1499.64C828.207 1495.64 821.957 1492.89 815.457 1491.39C808.957 1489.89 802.457 1489.14 795.957 1489.14C785.457 1489.14 777.624 1490.89 772.457 1494.39C767.29 1497.72 764.707 1502.05 764.707 1507.39C764.707 1511.89 766.207 1515.39 769.207 1517.89C772.374 1520.22 776.374 1522.05 781.207 1523.39C786.207 1524.72 791.707 1525.89 797.707 1526.89C803.707 1527.72 809.707 1528.89 815.707 1530.39C821.707 1531.72 827.124 1533.64 831.957 1536.14C836.957 1538.64 840.957 1542.14 843.957 1546.64C847.124 1551.14 848.707 1557.14 848.707 1564.64C848.707 1572.64 846.374 1579.55 841.707 1585.39C837.04 1591.22 830.457 1595.8 821.957 1599.14C813.457 1602.3 803.29 1603.89 791.457 1603.89Z" fill="white"/>
<rect x="946.5" y="1343.39" width="630" height="339" rx="20" fill="#FFA31A"/>
<path d="M1100 1468.64C1110.83 1468.64 1120.33 1470.72 1128.5 1474.89C1136.83 1479.05 1143.33 1485.39 1148 1493.89C1152.67 1502.39 1155 1513.14 1155 1526.14V1602.39H1131V1528.89C1131 1516.05 1127.83 1506.39 1121.5 1499.89C1115.33 1493.39 1106.58 1490.14 1095.25 1490.14C1086.75 1490.14 1079.33 1491.8 1073 1495.14C1066.67 1498.47 1061.75 1503.39 1058.25 1509.89C1054.92 1516.39 1053.25 1524.47 1053.25 1534.14V1602.39H1029.25V1416.89H1053.25V1505.64L1048.5 1496.14C1052.83 1487.47 1059.5 1480.72 1068.5 1475.89C1077.5 1471.05 1088 1468.64 1100 1468.64ZM1255.17 1603.89C1243.83 1603.89 1233.83 1601.8 1225.17 1597.64C1216.67 1593.47 1210 1587.14 1205.17 1578.64C1200.5 1569.97 1198.17 1559.14 1198.17 1546.14V1469.89H1222.17V1543.39C1222.17 1556.39 1225.25 1566.14 1231.42 1572.64C1237.75 1579.14 1246.58 1582.39 1257.92 1582.39C1266.25 1582.39 1273.5 1580.72 1279.67 1577.39C1285.83 1573.89 1290.58 1568.89 1293.92 1562.39C1297.25 1555.72 1298.92 1547.72 1298.92 1538.39V1469.89H1322.92V1602.39H1300.17V1566.64L1303.92 1576.14C1299.58 1584.97 1293.08 1591.8 1284.42 1596.64C1275.75 1601.47 1266 1603.89 1255.17 1603.89ZM1438.86 1603.89C1427.52 1603.89 1417.27 1601.39 1408.11 1596.39C1399.11 1591.22 1391.94 1583.64 1386.61 1573.64C1381.44 1563.64 1378.86 1551.14 1378.86 1536.14C1378.86 1521.14 1381.52 1508.64 1386.86 1498.64C1392.36 1488.64 1399.61 1481.14 1408.61 1476.14C1417.77 1471.14 1427.86 1468.64 1438.86 1468.64C1451.86 1468.64 1463.36 1471.47 1473.36 1477.14C1483.36 1482.8 1491.27 1490.72 1497.11 1500.89C1502.94 1510.89 1505.86 1522.64 1505.86 1536.14C1505.86 1549.64 1502.94 1561.47 1497.11 1571.64C1491.27 1581.8 1483.36 1589.72 1473.36 1595.39C1463.36 1601.05 1451.86 1603.89 1438.86 1603.89ZM1368.61 1602.39V1416.89H1392.61V1505.14L1390.11 1535.89L1391.61 1566.64V1602.39H1368.61ZM1436.86 1582.89C1445.36 1582.89 1452.94 1580.97 1459.61 1577.14C1466.44 1573.3 1471.77 1567.89 1475.61 1560.89C1479.61 1553.72 1481.61 1545.47 1481.61 1536.14C1481.61 1526.64 1479.61 1518.47 1475.61 1511.64C1471.77 1504.64 1466.44 1499.22 1459.61 1495.39C1452.94 1491.55 1445.36 1489.64 1436.86 1489.64C1428.52 1489.64 1420.94 1491.55 1414.11 1495.39C1407.44 1499.22 1402.11 1504.64 1398.11 1511.64C1394.27 1518.47 1392.36 1526.64 1392.36 1536.14C1392.36 1545.47 1394.27 1553.72 1398.11 1560.89C1402.11 1567.89 1407.44 1573.3 1414.11 1577.14C1420.94 1580.97 1428.52 1582.89 1436.86 1582.89Z" fill="black"/>
</svg>
